<?xml version="1.0" encoding="UTF-8"?>
<svg xmlns="http://www.w3.org/2000/svg" width="512" height="512" viewBox="0 0 512 512">
  <path fill="#264DE4" d="M71.357,460.819L30.272,0h451.456l-41.129,460.746L255.724,512"/>
  <path fill="#2965F1" d="M405.388,431.408l35.148-393.73H256v435.146"/>
  <path fill="#EBEBEB" d="M124.46,208.59l5.065,56.517H256V208.59H124.46z M119.419,150.715l5.141,56.517H256v-56.517H119.419z M256,346.877l-0.248,0.066-62.944-16.996l-4.023-45.076h-56.736l7.919,88.741l115.772,32.14l0.26-0.073V346.877z"/>
  <path fill="#fff" d="M255.805,208.59v56.517h69.425l-6.477,73.299l-62.948,16.996v58.798l115.805-32.14l0.851-9.549l13.262-148.503l1.381-15.418h-15.418H255.805z M255.805,150.715v56.517h135.814l1.125-12.632l2.575-28.469l1.329-15.416H255.805z"/>
</svg>
