<?xml version="1.0" encoding="UTF-8"?>
<svg xmlns="http://www.w3.org/2000/svg" width="512" height="512" viewBox="0 0 512 512">
  <rect width="512" height="512" fill="#F7DF1E"/>
  <path d="M324.4,370.8c8.5,13.9,19.6,24.1,39.2,24.1c16.5,0,27-8.2,27-19.6c0-13.6-10.8-18.4-28.9-26.3l-9.9-4.3c-28.6-12.2-47.6-27.5-47.6-59.8c0-29.7,22.7-52.4,58.1-52.4c25.2,0,43.3,8.8,56.4,31.7l-30.9,19.8c-6.8-12.2-14.1-17-25.5-17c-11.6,0-19,7.4-19,17c0,11.9,7.4,16.7,24.4,24.1l9.9,4.3c33.7,14.5,52.7,29.2,52.7,62.4c0,35.7-28.1,55.3-65.8,55.3c-36.9,0-60.7-17.6-72.3-40.7L324.4,370.8z M179.2,373.7c6.2,11,11.9,20.4,25.5,20.4c13,0,21.2-5.1,21.2-24.9V233.4h40.7v136.4c0,42.1-24.7,61.3-60.7,61.3c-32.6,0-51.4-16.9-61-37.2L179.2,373.7z"/>
</svg>
