<?xml version="1.0" encoding="UTF-8"?>
<svg xmlns="http://www.w3.org/2000/svg" width="488.4" height="488.4" viewBox="0 0 488.4 488.4">
  <path fill="#3776AB" d="M244.2 0c-19.1 0-37.6 1.7-53.8 4.6-47.7 8.5-56.3 26.3-56.3 59.1v43.3h112.6v14.4H88.9c-33 0-61.9 19.9-71 57.7-10.4 43.3-10.9 70.4 0 115.7 8.1 33.7 27.3 57.7 60.4 57.7h39.1v-52c0-37.6 32.5-70.8 71-70.8h113.4c31.6 0 56.3-26 56.3-57.7V63.7c0-30.8-26-53.9-56.3-59.1C281.8 1.7 263.3 0 244.2 0zM178.6 34.8c11.6 0 21.1 9.6 21.1 21.5 0 11.8-9.5 21.4-21.1 21.4-11.7 0-21.1-9.6-21.1-21.4 0-11.9 9.4-21.5 21.1-21.5z"/>
  <path fill="#FFD43B" d="M356.8 121.4v50.5c0 39.2-33.2 72.2-71 72.2H172.4c-31.1 0-56.3 26.6-56.3 57.7v108.1c0 30.8 26.8 48.9 56.3 57.7 35.3 10.5 69.2 12.4 113.4 0 29.4-8.2 56.3-24.8 56.3-57.7v-43.3H228.5v-14.4h169.7c33 0 45.3-23 56.3-57.7 11.4-35.7 10.9-70 0-115.7-7.9-33-22.9-57.7-56.3-57.7h-41.4zm-64 275.6c11.7 0 21.1 9.6 21.1 21.4 0 11.9-9.4 21.5-21.1 21.5-11.6 0-21.1-9.6-21.1-21.5 0-11.8 9.5-21.4 21.1-21.4z"/>
</svg>
